<?xml version="1.0" encoding="utf-8"?>
<!-- Generator: Adobe Illustrator 24.1.1, SVG Export Plug-In . SVG Version: 6.00 Build 0)  -->
<svg version="1.1" id="Capa_1" focusable="false" xmlns="http://www.w3.org/2000/svg" xmlns:xlink="http://www.w3.org/1999/xlink"
	 x="0px" y="0px" viewBox="0 0 42 33.6" style="enable-background:new 0 0 42 33.6;" xml:space="preserve">
<style type="text/css">
	.st0{fill:#FFFFFF;}
</style>
<g>
	<g>
		<path class="st0" d="M12.1,8.4H8.9c-0.4,0-0.5,0.2-0.5,0.5v15.7c0,0.4,0.2,0.5,0.5,0.5h3.1c0.4,0,0.5-0.2,0.5-0.5V8.9
			C12.6,8.6,12.4,8.4,12.1,8.4z M9.5,29.4H4.2v-5.2c0-0.5-0.5-1.1-1.1-1.1H1.1c-0.5,0-1.1,0.5-1.1,1.1v8.4c0,0.5,0.5,1.1,1.1,1.1
			h8.4c0.5,0,1.1-0.5,1.1-1.1v-2.1C10.5,29.7,10,29.4,9.5,29.4z M16.3,8.4h-1.1c-0.4,0-0.5,0.2-0.5,0.5v15.7c0,0.4,0.2,0.5,0.5,0.5
			h1.1c0.4,0,0.5-0.2,0.5-0.5V8.9C16.8,8.6,16.6,8.4,16.3,8.4z M1.1,10.5h2.1c0.5,0,1.1-0.5,1.1-1.1V4.2h5.2c0.5,0,1.1-0.5,1.1-1.1
			V1.1C10.5,0.5,10,0,9.5,0H1.1C0.5,0,0,0.5,0,1.1v8.4C0,10,0.5,10.5,1.1,10.5z M26.8,8.4h-3.1c-0.4,0-0.5,0.2-0.5,0.5v15.7
			c0,0.4,0.2,0.5,0.5,0.5h3.1c0.4,0,0.5-0.2,0.5-0.5V8.9C27.3,8.6,27.1,8.4,26.8,8.4z M20.5,8.4h-1.1c-0.4,0-0.5,0.2-0.5,0.5v15.7
			c0,0.4,0.2,0.5,0.5,0.5h1.1c0.4,0,0.5-0.2,0.5-0.5V8.9C21,8.6,20.8,8.4,20.5,8.4z M40.9,0h-8.4c-0.5,0-1.1,0.5-1.1,1.1v2.1
			c0,0.5,0.5,1.1,1.1,1.1h5.2v5.2c0,0.5,0.5,1.1,1.1,1.1h2.1c0.5,0,1.1-0.5,1.1-1.1V1.1C42,0.4,41.5,0,40.9,0z M40.9,23.1h-2.1
			c-0.5,0-1.1,0.5-1.1,1.1v5.2h-5.2c-0.5,0-1.1,0.5-1.1,1.1v2.1c0,0.5,0.5,1.1,1.1,1.1h8.4c0.5,0,1.1-0.5,1.1-1.1v-8.4
			C42,23.4,41.5,23.1,40.9,23.1z M33.6,24.7V8.9c0-0.3-0.2-0.5-0.5-0.5h-3.1c-0.4,0-0.5,0.2-0.5,0.5v15.7c0,0.4,0.2,0.5,0.5,0.5h3.1
			C33.4,25.2,33.6,24.8,33.6,24.7z"/>
	</g>
</g>
</svg>
