<?xml version="1.0" encoding="utf-8"?>
<!-- Generator: Adobe Illustrator 23.0.4, SVG Export Plug-In . SVG Version: 6.00 Build 0)  -->
<svg version="1.1" id="Capa_1" xmlns="http://www.w3.org/2000/svg" xmlns:xlink="http://www.w3.org/1999/xlink" x="0px" y="0px"
	 viewBox="0 0 480 384" style="enable-background:new 0 0 480 384;" xml:space="preserve">
<style type="text/css">
	.st0{fill:#FFFFFF;}
</style>
<g>
	<g>
		<path class="st0" d="M80,0H16C7.2,0,0,7.2,0,16v64c0,8.8,7.2,16,16,16s16-7.2,16-16V32h48c8.8,0,16-7.2,16-16S88.8,0,80,0z"/>
	</g>
</g>
<g>
	<g>
		<path class="st0" d="M464,288c-8.8,0-16,7.2-16,16v48h-48c-8.8,0-16,7.2-16,16s7.2,16,16,16h64c8.8,0,16-7.2,16-16v-64
			C480,295.2,472.8,288,464,288z"/>
	</g>
</g>
<g>
	<g>
		<path class="st0" d="M464,0h-64c-8.8,0-16,7.2-16,16s7.2,16,16,16h48v48c0,8.8,7.2,16,16,16s16-7.2,16-16V16
			C480,7.2,472.8,0,464,0z"/>
	</g>
</g>
<g>
	<g>
		<path class="st0" d="M80,352H32v-48c0-8.8-7.2-16-16-16s-16,7.2-16,16v64c0,8.8,7.2,16,16,16h64c8.8,0,16-7.2,16-16
			S88.8,352,80,352z"/>
	</g>
</g>
<g>
	<g>
		<rect x="64" y="64" class="st0" width="32" height="256"/>
	</g>
</g>
<g>
	<g>
		<rect x="128" y="64" class="st0" width="32" height="192"/>
	</g>
</g>
<g>
	<g>
		<rect x="192" y="64" class="st0" width="32" height="192"/>
	</g>
</g>
<g>
	<g>
		<rect x="256" y="64" class="st0" width="32" height="256"/>
	</g>
</g>
<g>
	<g>
		<rect x="320" y="64" class="st0" width="32" height="192"/>
	</g>
</g>
<g>
	<g>
		<rect x="384" y="64" class="st0" width="32" height="256"/>
	</g>
</g>
<g>
	<g>
		<rect x="128" y="288" class="st0" width="32" height="32"/>
	</g>
</g>
<g>
	<g>
		<rect x="192" y="288" class="st0" width="32" height="32"/>
	</g>
</g>
<g>
	<g>
		<rect x="320" y="288" class="st0" width="32" height="32"/>
	</g>
</g>
</svg>
