<svg xmlns="http://www.w3.org/2000/svg" viewBox="0 0 150 150"><defs><style>.cls-1,.cls-3,.cls-4{fill:none;stroke:#0074be;}.cls-1,.cls-3{stroke-linejoin:round;}.cls-2{fill:#0074be;}.cls-3{stroke-width:3px;}.cls-4{stroke-miterlimit:10;stroke-width:2px;}</style></defs><title>Mesa de trabajo 1 copia 6</title><g id="Capa_1" data-name="Capa 1"><line class="cls-1" x1="46.98" y1="65.07" x2="58.08" y2="94.19"/><polygon class="cls-2" points="42.84 68.21 44.42 58.37 52.15 64.66 42.84 68.21"/><line class="cls-1" x1="61.55" y1="88.28" x2="61.55" y2="57.11"/><polygon class="cls-2" points="66.54 86.82 61.55 95.45 56.57 86.82 66.54 86.82"/><line class="cls-3" x1="74.31" y1="58.37" x2="75.34" y2="96.5"/><line class="cls-1" x1="99.19" y1="66.1" x2="88.09" y2="95.23"/><polygon class="cls-2" points="94.01 65.69 101.75 59.4 103.33 69.24 94.01 65.69"/><line class="cls-1" x1="84.61" y1="89.31" x2="84.61" y2="58.14"/><polygon class="cls-2" points="89.6 87.85 84.61 96.48 79.63 87.85 89.6 87.85"/><polygon class="cls-1" points="35.14 87.33 24.26 81.04 24.26 93.61 35.14 87.33"/><line class="cls-1" x1="14.59" y1="94.44" x2="19.75" y2="80.01"/><polygon class="cls-1" points="124.72 87.74 136.5 94.54 136.5 80.94 124.72 87.74"/><line class="cls-1" x1="125.32" y1="87.74" x2="112.96" y2="87.74"/></g><g id="Capa_2" data-name="Capa 2"><rect class="cls-4" x="36.51" y="56.82" width="76.38" height="38.65" rx="3.79"/><path class="cls-4" d="M39.46,95.47H15.76a2.26,2.26,0,0,1-2.26-2.26V82.08a2.26,2.26,0,0,1,2.26-2.25H37.62"/><path class="cls-4" d="M109.2,95.47h25.54A2.26,2.26,0,0,0,137,93.21V82.08a2.26,2.26,0,0,0-2.26-2.25H112.88"/></g></svg>