<svg xmlns="http://www.w3.org/2000/svg" viewBox="0 0 150 150"><defs><style>.cls-1,.cls-3{fill:none;stroke:#0074be;stroke-miterlimit:10;stroke-width:2px;}.cls-2{fill:#0074be;}.cls-3{stroke-linecap:round;}.cls-4{fill:#fff;}</style></defs><title>Mesa de trabajo 1 copia 5</title><g id="Capa_2" data-name="Capa 2"><path class="cls-1" d="M93.1,90V53a7.82,7.82,0,1,0-15.63,0V90A12.72,12.72,0,1,0,93.1,90Z"/><path class="cls-2" d="M70,73.51,72,70l-3.63-2.1L70.8,67l-1.48-3.78-5.45,2.13-3.54-2.05a5.58,5.58,0,0,0,0-1.49l3.54-2.05,5.45,2.13,1.48-3.78-2.43-1L72,55l-2-3.52-3.63,2.1L66.73,51l-4-.61-.88,5.79-3.55,2A5.48,5.48,0,0,0,57,57.51v-4.1l4.57-3.65L59,46.59l-2,1.63V44H53v4.19l-2-1.63-2.53,3.17L53,53.41v4.1a5.48,5.48,0,0,0-1.29.74l-3.55-2-.88-5.79-4,.61.39,2.58L40,51.51,38,55l3.63,2.09-2.43,1,1.48,3.78,5.45-2.13,3.54,2.05a5.58,5.58,0,0,0,0,1.49l-3.54,2.05-5.45-2.13L39.15,67l2.43,1L38,70l2,3.51,3.63-2.09L43.22,74l4,.61.88-5.78,3.55-2a5.18,5.18,0,0,0,1.29.75v4.09l-4.57,3.66,2.53,3.17,2-1.63V81h4V76.81l2,1.63,2.53-3.17L57,71.61V67.52a5.18,5.18,0,0,0,1.29-.75l3.55,2,.88,5.78,4-.61-.39-2.57Z"/><circle class="cls-1" cx="85.29" cy="100" r="7.26"/><line class="cls-3" x1="85" y1="92" x2="85" y2="68"/><path class="cls-4" d="M58.43,62.51A3.46,3.46,0,1,1,55,59.06,3.46,3.46,0,0,1,58.43,62.51Z"/><rect class="cls-2" x="97.79" y="78.67" width="13" height="3.33" rx="1.67"/><rect class="cls-2" x="97.79" y="71.44" width="20" height="3.33" rx="1.67"/><rect class="cls-2" x="97.79" y="64.22" width="8" height="3.33" rx="1.67"/><rect class="cls-2" x="97.79" y="57" width="15" height="3.33" rx="1.67"/></g></svg>