<svg xmlns="http://www.w3.org/2000/svg" viewBox="0 0 150 150"><defs><style>.cls-1{fill:none;}.cls-1,.cls-2{stroke:#0074be;stroke-miterlimit:10;stroke-width:2px;}.cls-2{fill:#fff;}.cls-3{fill:#0074be;}</style></defs><title>Mesa de trabajo 1 copia 3</title><g id="Capa_1" data-name="Capa 1"><path class="cls-1" d="M68.85,67.89v3.93a.78.78,0,0,1-.46.71l-8.46,3.76a.77.77,0,0,0-.46.71v5a.78.78,0,0,0,.78.78h4a.79.79,0,0,1,.64.33l4.74,6.64a.81.81,0,0,0,.64.33H81a.81.81,0,0,0,.64-.33l4.74-6.64a.79.79,0,0,1,.64-.33h4a.78.78,0,0,0,.78-.78V78a.8.8,0,0,0-.4-.69l-8.58-4.76a.78.78,0,0,1-.4-.68v-4a.78.78,0,0,0-.78-.78h-12A.78.78,0,0,0,68.85,67.89Z"/><rect class="cls-1" x="58.3" y="35.84" width="33.36" height="21.37" rx="1.06"/><path class="cls-2" d="M59.08,58.59l5.16,8.35a.8.8,0,0,0,.68.4h21a.82.82,0,0,0,.72-.46l4.3-8.36a.88.88,0,0,0-.72-1.31H59.76A.89.89,0,0,0,59.08,58.59Z"/></g><g id="Capa_2" data-name="Capa 2"><path class="cls-2" d="M59.39,82.64l-9.85,9.85a.68.68,0,0,0-.12.82l10,19a.7.7,0,0,0,.62.37H64.9a.7.7,0,0,0,.67-.91l-4.78-15.3a.69.69,0,0,1,.24-.77l8.42-6.55a.7.7,0,0,0,.11-1L65,82.68a.69.69,0,0,0-.54-.25H59.89A.67.67,0,0,0,59.39,82.64Z"/><path class="cls-2" d="M91,82.56l10.07,10.07a.44.44,0,0,1,.08.51L91,112.43a.43.43,0,0,1-.38.23h-5.4a.44.44,0,0,1-.42-.56l4.95-15.83a.44.44,0,0,0-.15-.47L80.8,89a.43.43,0,0,1-.06-.62l4.79-5.75a.42.42,0,0,1,.33-.16h4.83A.44.44,0,0,1,91,82.56Z"/><rect class="cls-3" x="41.36" y="40.64" width="16.68" height="2.66" rx="1.32"/><rect class="cls-3" x="41.36" y="45.52" width="16.68" height="2.66" rx="1.32"/><rect class="cls-3" x="41.36" y="50.39" width="16.68" height="2.66" rx="1.32"/><rect class="cls-3" x="91.32" y="40.64" width="16.68" height="2.66" rx="1.32"/><rect class="cls-3" x="91.32" y="45.52" width="16.68" height="2.66" rx="1.32"/><rect class="cls-3" x="91.32" y="50.39" width="16.68" height="2.66" rx="1.32"/><rect class="cls-3" x="72.47" y="69.05" width="6.33" height="2.37" rx="1.19" transform="translate(5.39 145.87) rotate(-90)"/><rect class="cls-3" x="65.33" y="45.22" width="8.34" height="2.08" rx="1.04" transform="translate(23.24 115.76) rotate(-90)"/><rect class="cls-3" x="70.47" y="45.22" width="8.34" height="2.08" rx="1.04" transform="translate(28.38 120.91) rotate(-90)"/><rect class="cls-3" x="75.62" y="45.22" width="8.34" height="2.08" rx="1.04" transform="translate(33.52 126.05) rotate(-90)"/></g></svg>