<svg xmlns="http://www.w3.org/2000/svg" viewBox="0 0 150 150"><defs><style>.cls-1{fill:none;stroke:#0074be;stroke-miterlimit:10;stroke-width:2px;}.cls-2{fill:#0074be;}</style></defs><title>Mesa de trabajo 1 copia 11</title><g id="Capa_2" data-name="Capa 2"><path class="cls-1" d="M113,77.09a2.52,2.52,0,0,0-2.15-2.16L85.07,71.27,82.34,61.05a7.59,7.59,0,0,0-3.55-4.63l-9.17-5.29,2.54-4.4,6.59,3.81a2.54,2.54,0,0,0,2.54-4.4L63.7,36a2.54,2.54,0,1,0-2.54,4.39l6.6,3.81-2.54,4.4L54.58,42.45,48.88,36a7.62,7.62,0,0,0-12.3,1.25l-2.26,3.92A7.6,7.6,0,0,0,35.21,50l7,7.91L35.52,69.56A7.62,7.62,0,0,0,38.31,80L66.83,96.43a7.67,7.67,0,0,0,7,.34l37.71-17A2.53,2.53,0,0,0,113,77.09ZM39,46.67a2.55,2.55,0,0,1-.3-3L41,39.8a2.54,2.54,0,0,1,4.1-.42l4.76,5.38L44.9,53.31ZM71.69,92.14A2.54,2.54,0,0,1,69.37,92L40.85,75.56a2.54,2.54,0,0,1-.93-3.46l1.27-2.2,35,20.21Z"/><path class="cls-2" d="M113.75,109a7.21,7.21,0,0,1-7.2-7.2,7.11,7.11,0,0,1,.88-3.45l.09-.19L113.75,85,120,98.16l.09.19a7,7,0,0,1,.88,3.45A7.21,7.21,0,0,1,113.75,109Z"/></g></svg>