<svg xmlns="http://www.w3.org/2000/svg" viewBox="0 0 150 150"><defs><style>.cls-1{fill:none;stroke:#0074be;stroke-miterlimit:10;stroke-width:2px;}.cls-2{fill:#0074be;}</style></defs><title>Mesa de trabajo 1 copia 4</title><g id="Capa_2" data-name="Capa 2"><path class="cls-1" d="M75,108.63A33.63,33.63,0,1,1,108.63,75,33.62,33.62,0,0,1,75,108.63Z"/><path class="cls-1" d="M75,113a38,38,0,1,1,38-38A38,38,0,0,1,75,113Z"/><path class="cls-1" d="M75,46.5A28.54,28.54,0,0,0,46.5,75a1.36,1.36,0,0,0,1.36,1.36H68.21a6.79,6.79,0,0,0,13.58,0h20.35A1.36,1.36,0,0,0,103.5,75,28.54,28.54,0,0,0,75,46.5Z"/><path class="cls-2" d="M73.64,51.93h2.72v2.71H73.64Z"/><path class="cls-2" d="M62.29,55.69l2.35-1.35L66,56.69,63.65,58Z"/><path class="cls-2" d="M54.34,64.65l1.36-2.36,2.35,1.36L56.69,66Z"/><path class="cls-2" d="M92,63.64l2.35-1.36,1.36,2.35L93.31,66Z"/><path class="cls-2" d="M84,56.7l1.35-2.35,2.35,1.35-1.35,2.35Z"/><path class="cls-2" d="M85.86,87.21H64.14a1.35,1.35,0,0,0-1.35,1.36V94a1.35,1.35,0,0,0,1.35,1.36H85.86A1.35,1.35,0,0,0,87.21,94V88.57A1.35,1.35,0,0,0,85.86,87.21Z"/><path class="cls-2" d="M75,80.43a4.07,4.07,0,0,1-4.07-4.07A3.84,3.84,0,0,1,71.18,75l.06-.24L75,63.13l3.73,11.56a2,2,0,0,0,.07.26,3.8,3.8,0,0,1,.27,1.41A4.07,4.07,0,0,1,75,80.43Z"/></g></svg>