<svg id="Capa_1" data-name="Capa 1" xmlns="http://www.w3.org/2000/svg" viewBox="0 0 150 150"><defs><style>.cls-1,.cls-2,.cls-4,.cls-5{fill:none;stroke:#0074be;}.cls-1{stroke-linecap:round;}.cls-1,.cls-4,.cls-5{stroke-linejoin:round;}.cls-1,.cls-2,.cls-4{stroke-width:2px;}.cls-2{stroke-miterlimit:10;}.cls-3{fill:#0074be;}</style></defs><title>Mesa de trabajo 1 copia</title><path class="cls-1" d="M101.88,83.5H15.12A3.12,3.12,0,0,1,12,80.38V44.62a3.12,3.12,0,0,1,3.12-3.12h86.76A3.12,3.12,0,0,1,105,44.62V80.38A3.12,3.12,0,0,1,101.88,83.5Z"/><line class="cls-2" x1="23" y1="83.5" x2="23" y2="41.5"/><line class="cls-2" x1="43.29" y1="41.95" x2="43.29" y2="83.5"/><path class="cls-3" d="M39,53.85v-4.7a.65.65,0,0,0-.65-.65H27.65a.65.65,0,0,0-.65.65v26.7a.65.65,0,0,0,.65.65h10.7a.65.65,0,0,0,.65-.65v-4.7a.65.65,0,0,0-.65-.65h-4.7a.65.65,0,0,1-.65-.65V55.15a.65.65,0,0,1,.65-.65h4.7A.65.65,0,0,0,39,53.85Z"/><path class="cls-3" d="M21,53.5v18H18v-18h3m2-2H17.43A1.43,1.43,0,0,0,16,52.93V72.07a1.43,1.43,0,0,0,1.43,1.43H23v-22Z"/><path class="cls-3" d="M47.32,53.5a.69.69,0,0,1,.68.68V70.82a.69.69,0,0,1-.68.68H45v-18h2.32m0-2H43v22h4.32A2.68,2.68,0,0,0,50,70.82V54.18a2.68,2.68,0,0,0-2.68-2.68Z"/><path class="cls-4" d="M49.5,56.5h87A1.51,1.51,0,0,1,138,58v9a1.51,1.51,0,0,1-1.51,1.51h-87a0,0,0,0,1,0,0v-12A0,0,0,0,1,49.5,56.5Z"/><line class="cls-5" x1="22" y1="99.68" x2="22" y2="120.5"/><polygon class="cls-3" points="17.01 101.14 22 92.5 26.99 101.14 17.01 101.14"/><line class="cls-5" x1="94" y1="99.68" x2="94" y2="120.5"/><polygon class="cls-3" points="89.01 101.14 94 92.5 98.99 101.14 89.01 101.14"/></svg>