<svg xmlns="http://www.w3.org/2000/svg" viewBox="0 0 150 150"><defs><style>.cls-1{fill:none;stroke:#0074be;stroke-miterlimit:10;stroke-width:2px;}</style></defs><title>Mesa de trabajo 1 copia 10</title><g id="Capa_2" data-name="Capa 2"><path class="cls-1" d="M35.53,27.8H52a0,0,0,0,1,0,0v72.52a3.5,3.5,0,0,1-3.5,3.5H39a3.5,3.5,0,0,1-3.5-3.5V27.8a0,0,0,0,1,0,0Z"/><path class="cls-1" d="M98.73,27.35h16.49a0,0,0,0,1,0,0V99.87a3.5,3.5,0,0,1-3.5,3.5h-9.49a3.5,3.5,0,0,1-3.5-3.5V27.35A0,0,0,0,1,98.73,27.35Z"/><line class="cls-1" x1="25" y1="27.35" x2="123" y2="27.35"/><path class="cls-1" d="M68.36,28.26H83.3a2.15,2.15,0,0,1,2.15,2.15v2.1a0,0,0,0,1,0,0H66.21a0,0,0,0,1,0,0v-2.1A2.15,2.15,0,0,1,68.36,28.26Z"/><path class="cls-1" d="M69.88,32.51h11A12.82,12.82,0,0,1,93.69,45.33V75.49a.55.55,0,0,1-.55.55H57.6a.55.55,0,0,1-.55-.55V45.33A12.82,12.82,0,0,1,69.88,32.51Z"/></g></svg>