<svg xmlns="http://www.w3.org/2000/svg" viewBox="0 0 150 150"><defs><style>.cls-1,.cls-3{fill:none;}.cls-1{stroke:#0074be;stroke-miterlimit:10;stroke-width:2px;}.cls-2{fill:#0074be;}.cls-3{stroke:#fff;stroke-linecap:round;stroke-linejoin:round;stroke-width:3px;}</style></defs><title>Mesa de trabajo 1 copia 7</title><g id="Capa_2" data-name="Capa 2"><path class="cls-1" d="M104.25,91.5c0,5-14,9-31.25,9s-31.25-4-31.25-9"/><path class="cls-1" d="M90,105.37c15-2.08,25.5-6.83,25.5-12.37,0-7.46-19-13.5-42.5-13.5s-42.5,6-42.5,13.5c0,5.54,10.49,10.29,25.5,12.37"/><path class="cls-2" d="M89.5,76.5a18,18,0,0,1-36,0c0-9.94,10.5-11.5,18-38C74.69,27.24,89.5,66.56,89.5,76.5Z"/><path class="cls-3" d="M60,73a14.07,14.07,0,0,0,7,13"/></g></svg>